<svg width="1263" height="143" viewBox="0 0 1263 143" fill="none" xmlns="http://www.w3.org/2000/svg">
<path d="M1064 56H1080.9C1088.8 56 1093.4 60 1093.4 65.8C1093.4 73.6 1086.8 76.8 1078.5 76.8H1072.1L1070.1 86.6H1057.5L1064 56ZM1073.7 69.3H1076.8C1079.2 69.3 1080.7 68 1080.7 65.9C1080.7 64.5 1080 63.3 1077.7 63.3H1075L1073.7 69.3Z" fill="white" fill-opacity="0.85"/>
<path d="M1105 56H1117.8L1113.1 78.6H1128.1L1125.1 86.6H1098.5L1105 56Z" fill="white" fill-opacity="0.85"/>
<path d="M976.1 45.5H1007L1017.7 58.3L1032.7 45.5H1063.4L1031 73.9L1054.8 101.7H1024.1L1013.2 89.1L998.9 101.7H968.2L999.9 73.9L976.1 45.5Z" fill="white" fill-opacity="0.85"/>
<path d="M1181.6 86.6L1188 56H1202.6C1204.2 62 1205.6 68.3 1206.6 72.7H1206.9C1207 70.4 1208.1 64.9 1209.1 59.8L1209.9 56H1221.2L1214.7 86.6H1200.8C1199.7 81.9 1197.6 72.6 1196.6 67.7H1196.4C1196.1 71.3 1194.9 76.9 1193.8 82.2L1192.9 86.6H1181.6Z" fill="white" fill-opacity="0.85"/>
<path d="M1254.7 75.1H1240.2L1239.5 78.4H1256.2L1253.1 86.5H1225.4L1231.9 55.9H1259.5L1257.8 63.9H1242.6L1241.9 67.1H1256.4L1254.7 75.1Z" fill="white" fill-opacity="0.85"/>
<path d="M1168 56.1H1151.1L1134.5 86.7H1147.6L1149.9 82.1H1159.5L1159.9 86.7H1172.6L1168 56.1ZM1153.7 74.1C1155 71.2 1156.8 66.9 1157.8 64.1H1158.1C1158.3 67 1158.5 71.6 1158.8 74.1H1153.7Z" fill="white" fill-opacity="0.85"/>
<path d="M1065.3 54.7H1082.2C1090.1 54.7 1094.7 58.7 1094.7 64.5C1094.7 72.3 1088.1 75.5 1079.8 75.5H1073.4L1071.4 85.3H1058.8L1065.3 54.7ZM1075 68H1078.1C1080.5 68 1082 66.7 1082 64.6C1082 63.2 1081.3 62 1079 62H1076.3L1075 68Z" fill="white" fill-opacity="0.85"/>
<path d="M1106.4 54.7H1119.2L1114.4 77.2H1129.4L1126.4 85.3H1099.9L1106.4 54.7Z" fill="white" fill-opacity="0.85"/>
<path d="M979.9 42.2H1010.8L1021.6 55L1036.5 42.2H1067.2L1034.8 70.6L1058.6 98.4H1027.9L1016.9 85.8L1002.7 98.4H971.9L1003.6 70.6L979.9 42.2Z" fill="white" fill-opacity="0.85"/>
<path d="M1182.9 85.3L1189.4 54.7H1204C1205.6 60.7 1207 67 1208 71.4H1208.3C1208.4 69.1 1209.5 63.6 1210.5 58.5L1211.3 54.7H1222.6L1216.1 85.3H1202.2C1201.1 80.6 1199 71.3 1198 66.4H1197.8C1197.5 70 1196.3 75.6 1195.2 80.9L1194.3 85.3H1182.9Z" fill="white" fill-opacity="0.85"/>
<path d="M1256 73.8H1241.5L1240.8 77.1H1257.5L1254.4 85.2H1226.7L1233.2 54.5H1260.8L1259.2 62.6H1243.9L1243.2 65.8H1257.8L1256 73.8Z" fill="white" fill-opacity="0.85"/>
<path d="M1169.4 54.8H1152.5L1135.9 85.4H1149L1151.3 80.8H1160.9L1161.3 85.4H1174L1169.4 54.8ZM1155.1 72.8C1156.4 69.9 1158.2 65.6 1159.2 62.8H1159.5C1159.7 65.7 1159.9 70.3 1160.2 72.8H1155.1Z" fill="white" fill-opacity="0.85"/>
<path fill-rule="evenodd" clip-rule="evenodd" d="M830.442 89.551L826.876 107.394C826.618 109.178 826.111 110.197 825.853 110.707C825.346 111.217 824.578 111.471 823.817 111.471C822.798 111.471 822.287 111.216 822.03 110.707C821.776 110.197 821.776 108.923 822.03 107.394L824.324 96.9426C824.578 95.1586 825.853 93.1199 828.405 91.3364C829.17 90.5702 829.931 89.8043 830.442 89.551ZM817.188 82.159H827.383L829.17 72.9849C829.424 71.4544 829.931 70.4352 830.442 69.6704C830.953 69.1594 831.46 68.9046 832.479 68.9046C833.247 68.9046 834.012 69.1594 834.012 69.6704C834.266 70.18 834.266 71.1996 834.012 72.9849L833.247 76.2962C832.736 79.0997 829.677 82.6701 825.089 84.7073C821.265 86.2379 818.971 87.7671 817.445 89.2962C816.169 90.8264 815.147 92.8651 814.64 95.6686L811.581 111.217C810.816 114.276 811.07 116.57 811.834 118.1C812.856 119.629 814.382 120.394 816.677 120.394C818.463 120.394 819.989 119.884 821.776 118.865C823.306 117.589 824.835 116.06 826.111 114.021L824.835 119.629H834.266L844.461 70.18C844.972 67.3769 844.461 65.3367 842.678 63.8062C840.637 61.7685 837.325 61.0038 833.755 61.2611C829.931 61.2611 826.111 62.5332 823.817 64.5723C821.265 66.6125 819.736 69.6705 818.971 74.0027L817.188 82.159ZM661.19 51.062L658.899 62.0222H655.583L654.053 69.6705H657.369L648.954 111.217C648.192 114.786 648.446 117.079 649.722 118.61C650.994 119.884 653.546 120.394 657.623 120.394H658.899H660.428L662.212 111.726H661.701C660.682 111.726 659.917 111.471 659.406 110.962C659.153 110.454 659.153 108.923 659.664 106.628L667.054 69.6704H670.624L672.15 62.0222H668.837L670.878 51.062H661.19L661.19 51.062ZM853.385 51.062H863.323L861.032 62.0222H864.598L862.815 69.6705H859.503L852.109 106.628C851.598 108.923 851.344 110.454 851.851 110.962C852.109 111.471 852.873 111.726 854.149 111.726H854.403L852.616 120.394H851.09H849.814C845.737 120.394 843.185 119.884 841.913 118.61C840.637 117.079 840.384 114.786 841.148 111.217L849.561 69.6705H846.244L847.774 62.0223H851.09L853.384 51.0621L853.385 51.062ZM534 121.158L548.783 48.003H574.274L572.489 57.4373H558.216L554.646 76.0413H568.921L566.883 85.2172H552.609L545.47 121.158H534L534 121.158ZM576.313 47.2383L561.529 121.158H571.47L585.998 47.2383H576.313ZM587.272 62.2796H597.214L585.487 121.158H575.549L587.272 62.2796H587.272ZM588.037 58.4559L590.077 47.2384H600.019L597.977 58.4559H588.037ZM626.528 62.0223H616.586L615.311 67.6318C615.056 65.5916 614.291 64.0614 613.017 63.0433C611.743 61.7686 610.469 61.2612 608.685 61.2612C606.39 61.2612 604.351 61.7686 603.076 63.0433C601.801 64.3161 600.783 66.6126 600.274 69.4142L593.135 105.354C592.626 108.16 592.626 110.198 593.645 111.726C594.411 113.002 595.684 113.766 597.977 113.766C599.509 113.766 601.292 113.257 602.566 112.237C604.096 111.471 605.37 110.962 606.9 109.178L604.606 119.884C604.351 121.668 603.841 122.942 603.33 123.708C602.821 124.218 602.056 124.727 601.037 124.727C600.274 124.727 599.764 124.472 599.509 123.963C599.253 123.453 600.783 116.57 600.783 115.807L601.037 115.552H591.097C591.097 116.06 589.313 122.942 589.313 123.453C588.803 129.824 592.881 132.627 600.019 132.627C609.704 132.627 613.527 127.784 615.056 119.884L626.528 62.0222L626.528 62.0223ZM608.428 101.022L613.782 74.0027C614.037 72.7302 614.037 71.964 613.782 71.4545C613.527 70.6901 613.017 70.4353 612.253 70.4353C611.49 70.4353 610.979 70.6901 610.469 71.4545C609.958 71.964 609.704 72.7302 609.449 74.0027L604.096 101.022C603.841 102.296 603.841 103.062 604.096 103.826C604.351 104.336 604.861 104.591 605.625 104.591C606.136 104.591 606.9 104.336 607.409 103.826C607.919 103.062 608.174 102.296 608.428 101.022ZM618.115 121.158L632.644 47.2383H642.586L638.506 66.866C639.78 65.3368 641.055 63.8062 642.586 62.7885C644.115 61.7686 645.641 61.2612 647.428 61.2612C649.722 61.2612 651.252 62.0223 652.016 63.2966C652.781 64.5724 652.781 66.6126 652.27 69.6705L642.076 121.158H632.135L641.565 73.748C641.821 72.7303 641.821 71.7094 641.565 71.1998C641.31 70.4354 640.801 70.1802 640.035 70.1802C639.525 70.1802 638.76 70.4354 638.251 71.1998C637.742 71.7094 637.487 72.4752 637.233 73.748L628.056 121.158H618.115L618.115 121.158ZM716.505 61.7686L714.211 74.5127H703.251L705.799 60.4963C706.052 58.4558 706.31 56.9264 705.799 55.9079C705.545 55.1432 704.78 54.8858 703.504 54.8858C702.229 54.8858 701.21 55.1433 700.449 55.9079C699.938 56.669 699.427 58.1985 698.916 60.4963L697.898 65.5916C697.386 68.6498 699.17 72.985 702.74 78.5912C704.523 81.1399 705.545 83.1801 706.563 84.4526C708.093 87.2575 709.111 89.8044 709.365 92.3556C709.876 94.9025 710.13 97.1974 709.623 99.7476L708.604 105.354C707.582 110.707 705.288 114.786 702.229 117.844C699.17 120.65 695.092 122.177 690.508 122.177C685.154 122.177 681.838 120.903 680.055 118.1C678.271 115.552 678.014 111.217 679.036 104.846L681.584 92.3557H692.544L689.739 106.628C689.232 109.178 689.232 110.707 689.739 111.471C689.997 112.237 690.761 112.747 692.287 112.747C693.563 112.747 694.585 112.237 695.092 111.471C695.861 110.707 696.368 108.923 696.876 106.628L697.898 101.276C697.898 100.512 698.151 99.4925 697.898 98.4733C697.898 97.7089 697.898 96.688 697.641 95.6688C697.387 94.3944 696.115 91.8461 694.074 88.5316C692.545 86.238 691.269 84.4526 690.508 82.925C688.467 79.3546 687.191 76.2964 686.934 74.2576C686.427 71.7093 686.427 69.1596 686.934 66.6127L687.956 60.7502C688.975 55.908 690.761 52.338 693.82 49.5327C697.133 46.9848 700.957 45.709 705.545 45.709C710.13 45.709 713.447 46.9847 715.23 49.79C717.017 52.338 717.524 56.4155 716.505 61.7687L716.505 61.7686ZM721.605 62.0223L709.622 121.158H719.818L731.8 62.0223H721.605ZM722.366 58.1985L724.66 46.9846H734.602L732.561 58.1985H722.366H722.366ZM735.62 62.0223H745.051L744.032 67.6318C745.305 65.5916 746.838 64.0614 748.367 62.7885C750.15 61.7686 751.68 61.0038 753.463 61.0038C755.246 61.0038 756.776 61.5149 757.541 62.5333C758.563 63.5514 759.074 65.082 759.074 67.1222C759.835 65.3368 761.111 63.8062 762.894 62.7885C764.423 61.5149 766.207 61.0038 768.247 61.0038C770.288 61.0038 771.817 61.7686 772.578 63.0433C773.343 64.5724 773.343 66.6126 772.836 69.4142L762.387 121.158H752.698L762.129 73.7479C762.387 72.475 762.129 71.7092 761.875 70.9448C761.622 70.4352 761.111 70.1801 760.6 70.1801C759.835 70.1801 759.328 70.4352 758.817 70.9448C758.309 71.7092 757.798 72.475 757.541 73.7479L748.11 121.158H738.172L747.603 73.7479C747.856 72.475 747.856 71.7092 747.603 70.9448C747.345 70.4352 746.838 70.1801 746.07 70.1801C745.562 70.1801 744.797 70.4352 744.286 70.9448C743.779 71.7092 743.522 72.475 743.268 73.7479L733.837 121.158H723.895L735.62 62.0222L735.62 62.0223ZM778.443 62.0223L768.247 113.766C767.74 116.825 767.74 118.865 768.501 120.139C769.523 121.413 771.052 122.177 773.343 122.177C775.13 122.177 776.659 121.413 778.443 120.394C779.972 119.374 781.502 117.589 782.777 115.552L781.502 121.158H791.19L802.915 62.0222H792.973L783.542 109.687C783.285 110.707 782.777 111.726 782.266 112.237C782.013 112.747 781.248 113.002 780.737 113.002C779.972 113.002 779.465 112.747 779.207 112.237C778.954 111.726 778.954 110.707 778.954 109.687L788.384 62.0222H778.443V62.0223ZM809.794 46.9847H819.735L804.955 121.158H795.013L809.794 46.9847ZM880.912 107.905L887.287 75.2786C888.302 70.4353 888.048 66.8659 886.261 64.5724C884.735 62.2797 881.934 61.0039 877.853 61.0039C873.775 61.0039 870.459 62.2797 867.911 64.5724C865.363 66.866 863.58 70.4353 862.815 75.2786L856.186 107.905C855.168 112.747 855.675 116.315 857.204 118.61C858.738 120.904 861.539 122.178 865.874 122.178C869.951 122.178 873.264 120.904 875.558 118.61C878.106 116.315 879.893 112.747 880.912 107.905ZM873.007 73.2399L865.874 109.688C865.363 111.217 865.363 112.237 865.617 113.002C865.874 113.512 866.385 113.766 867.403 113.766C868.168 113.766 868.929 113.512 869.44 113.002C869.694 112.493 870.205 111.471 870.459 109.688L877.853 73.2399C878.106 71.4545 878.106 70.4353 877.853 69.6706C877.595 69.1595 877.088 68.9047 876.323 68.9047C875.305 68.9047 874.54 69.1596 874.282 69.9254C873.775 70.4353 873.264 71.4545 873.007 73.2399H873.007ZM881.934 121.158L893.655 62.0223H903.086L902.067 67.6319C903.343 65.5917 904.619 64.0615 906.398 62.7886C907.932 61.7687 909.715 61.2612 911.498 61.2612C913.792 61.2612 915.322 61.7686 916.086 63.0433C916.851 64.5725 916.851 66.6126 916.34 69.4143L911.752 92.101H902.067L905.634 73.748C905.891 72.4752 905.891 71.7094 905.634 70.9449C905.38 70.4354 904.873 70.1802 904.108 70.1802C903.343 70.1802 902.832 70.4354 902.321 70.9449C901.814 71.7094 901.556 72.4752 901.302 73.748L891.872 121.158H881.934Z" fill="white" fill-opacity="0.85"/>
<path fill-rule="evenodd" clip-rule="evenodd" d="M548.73 41.487L554.772 9.99939H563.044L562.09 26.2226L567.178 9.99939H574.812L568.77 41.487H563.68L567.814 20.8134L561.452 41.487H556.682L557.634 20.8134L553.819 41.487H548.73ZM587.217 21.1345L584.354 36.3989V37.9909C584.672 38.3122 584.672 38.3122 585.309 38.3122C585.628 38.3122 585.946 38.3122 586.264 37.9909C586.582 37.6743 586.582 37.3577 586.9 36.3989L587.852 31.6319H592.624L591.988 35.7657C591.352 37.6743 590.716 39.2663 589.444 40.2206C588.17 41.1704 586.582 41.8081 584.672 41.8081C582.445 41.8081 581.174 41.1704 580.22 40.2206C579.583 39.2663 579.266 37.6743 579.583 35.7657L582.128 22.0888C582.764 19.8591 583.4 18.5881 584.672 17.6384C585.946 16.6795 587.534 16.0419 589.444 16.0419C591.67 16.0419 592.942 16.6795 593.898 17.6384C594.85 18.5881 594.85 19.8591 594.532 22.0888L593.898 25.906H588.808L589.762 21.1345V19.5425C589.762 19.5425 589.443 19.2259 588.808 19.2259C588.49 19.2259 588.17 19.5425 587.852 19.8591C587.534 19.8591 587.534 20.4968 587.217 21.1345ZM591.988 41.487H597.078L601.212 21.4511C601.212 20.8134 601.53 20.4968 601.53 20.1802C601.85 19.8589 602.166 19.8589 602.484 19.8589C602.804 19.8589 603.121 19.8589 603.439 20.1802V21.4511L601.85 29.4022H606.938L608.846 19.5425C609.166 18.2716 608.846 17.3173 608.528 17.0007C608.21 16.363 607.256 16.0419 606.302 16.0419C605.348 16.0419 604.392 16.3631 603.439 16.6796C602.804 17.3173 602.166 17.955 601.53 18.9048L601.85 16.363H597.078L591.988 41.487H591.988ZM661.328 11.5914H666.417L665.463 16.3629H667.371L666.736 19.5424H664.827L661.647 35.7656C661.328 36.7199 661.328 37.3577 661.647 37.6743C661.647 37.9908 662.283 37.9908 662.919 37.9908L662.283 41.808H661.328H660.691C658.784 41.808 657.511 41.4868 656.558 40.8538C655.921 40.2206 655.921 39.2663 656.24 37.6743L659.737 19.5424H656.877L652.741 41.4869H647.333L651.787 19.5424H649.877L650.513 16.3629H652.423L652.741 14.1332C653.059 12.8668 653.696 11.9125 654.648 11.2748C655.603 10.6371 656.877 9.99939 658.467 9.99939H660.691L660.057 14.1332H659.737H659.102H658.147C658.147 14.4545 657.829 14.7709 657.829 15.0875L657.511 16.3629H660.373L661.327 11.5914H661.328ZM641.927 21.1345L638.745 36.3989V37.9908C639.064 38.3121 639.381 38.3121 639.699 38.3121C640.017 38.3121 640.334 38.3121 640.652 37.9908C640.972 37.6743 640.972 37.3577 641.29 36.3989L644.152 21.1345C644.47 20.4968 644.47 19.859 644.47 19.5424C644.152 19.5424 643.834 19.2258 643.516 19.2258C642.881 19.2258 642.563 19.5424 642.563 19.859C642.245 19.859 641.927 20.4968 641.927 21.1345H641.927ZM646.379 35.7656L649.241 22.0887C649.56 19.859 649.56 18.5881 648.606 17.6383C647.651 16.6795 646.379 16.0418 644.152 16.0418C641.927 16.0418 640.334 16.6795 639.063 17.6383C637.792 18.5881 637.153 19.859 636.519 22.0887L633.973 35.7656C633.338 37.6742 633.655 39.2663 634.609 40.2206C635.565 41.1704 636.837 41.808 639.063 41.808C640.972 41.808 642.881 41.1704 644.152 40.2206C645.425 39.2663 646.062 37.6742 646.379 35.7656ZM621.25 31.6318H626.341L625.387 36.3988C625.068 37.3576 625.068 37.6743 625.387 37.9908C625.387 38.3121 625.705 38.3121 626.023 38.3121C626.659 38.3121 626.977 38.3121 627.294 37.9908C627.294 37.6743 627.612 37.3576 627.612 36.3988L627.93 35.1279C628.248 33.5404 627.612 32.265 626.341 30.6775C626.023 30.3609 625.706 30.0398 625.388 29.7187C625.388 29.7187 625.068 29.4021 624.748 29.0855C622.842 26.8558 622.206 24.9517 622.524 23.3597L622.842 21.451C623.16 19.5424 624.112 18.2716 625.388 17.3173C626.659 16.363 628.248 16.0418 630.474 16.0418C632.384 16.0418 633.974 16.6795 634.928 17.6384C635.566 18.5881 635.884 20.1801 635.566 22.0887L634.61 25.906H629.522L630.474 21.1345C630.792 20.4968 630.792 19.859 630.474 19.5424C630.474 19.5424 630.158 19.2258 629.522 19.2258C629.203 19.2258 628.886 19.5424 628.568 19.859C628.568 19.859 628.248 20.4968 628.248 21.1345L627.93 22.4053C627.612 23.6808 628.248 25.2683 629.521 26.5392C629.839 26.8558 629.839 27.1769 630.158 27.1769C630.158 27.4935 630.474 27.4935 630.474 27.8146C632.702 30.0398 633.656 32.265 633.338 34.1736L632.702 36.3988C632.383 37.9908 631.748 39.2663 630.474 40.2206C629.204 41.1704 627.294 41.808 625.388 41.808C623.16 41.808 621.887 41.1704 620.932 40.2206C619.98 39.2663 619.98 37.6742 620.298 35.449L621.25 31.6318H621.25ZM614.57 21.1344L611.39 36.3988V37.9908C611.708 38.3121 612.028 38.3121 612.346 38.3121C612.664 38.3121 613.299 38.3121 613.299 37.9908C613.617 37.6743 613.617 37.3576 613.934 36.3988L617.118 21.1344V19.5424C616.799 19.5424 616.481 19.2258 616.163 19.2258C615.527 19.2258 615.208 19.5424 615.208 19.859C614.888 19.859 614.57 20.4967 614.57 21.1344ZM619.025 35.7656C618.707 37.6742 618.07 39.2663 616.799 40.2206C615.527 41.1704 613.934 41.808 611.708 41.808C609.484 41.808 608.21 41.1704 607.256 40.2206C606.302 39.2663 605.985 37.6742 606.62 35.7656L609.166 22.0887C609.802 19.859 610.437 18.5881 611.708 17.6383C612.981 16.6795 614.57 16.0417 616.799 16.0417C619.025 16.0417 620.298 16.6795 621.25 17.6383C622.206 18.5881 622.206 19.859 621.887 22.0887L619.025 35.7656ZM577.038 14.7709L577.992 9.99939H583.082L582.128 14.7709H577.038ZM576.72 16.363L571.632 41.4869H576.72L581.81 16.363H576.72Z" fill="white" fill-opacity="0.85"/>
<path d="M265.94 48.2936C265.515 48.4085 264.859 48.8298 264.397 49.2894C263.837 49.8255 259.439 56.9106 250.237 72.134C242.888 84.2745 236.888 94.2511 236.888 94.3085C236.888 94.366 238.952 94.4043 241.479 94.4043H246.051L256.275 77.2277C261.908 67.7872 266.596 59.9553 266.711 59.8021C266.866 59.5723 268.023 61.3723 271.939 67.9213L276.974 76.3085L269.971 76.366L262.969 76.4043L261.117 79.5638C260.095 81.3064 259.265 82.7617 259.265 82.8191C259.265 82.8766 264.146 82.9149 270.126 82.9149L280.967 82.934L284.401 88.6596L287.815 94.4043H292.638C295.3 94.4043 297.461 94.3468 297.461 94.2894C297.461 94.2319 291.442 84.2553 284.111 72.134C275.103 57.2936 270.473 49.8447 269.933 49.2894C268.795 48.1787 267.56 47.8723 265.94 48.2936Z" fill="white" fill-opacity="0.85"/>
<path d="M5.2085 71.617V94.4043H9.16306H13.1176V75.6383V56.8532L26.6789 56.9106L40.2208 56.9681L41.3397 57.4085C43.5388 58.3085 45.1785 59.9936 45.8923 62.1766C46.3938 63.6702 46.4517 66.8106 46.008 68.2851C45.3328 70.5255 43.5774 72.4213 41.2818 73.3787C40.2208 73.8191 40.1437 73.8191 29.611 73.9149L19.0012 74.0106L18.9434 77.8979L18.9048 81.7851L29.8425 81.7277C40.5681 81.6511 40.8381 81.6511 42.4393 81.2106C45.873 80.2915 48.728 78.5489 50.657 76.2511C54.8238 71.234 55.5375 62.5979 52.316 56.3936C51.8145 55.4553 51.1007 54.5362 49.8661 53.3106C48.3807 51.817 47.8406 51.434 46.2974 50.6872C45.2943 50.1894 43.7703 49.5957 42.9215 49.366L41.3783 48.9255L23.303 48.8681L5.2085 48.8106V71.617Z" fill="white" fill-opacity="0.85"/>
<path d="M66.3594 71.617V94.4043H70.3139H74.2685V75.6383V56.8532L88.2156 56.9106L102.143 56.9681L103.224 57.4085C105.384 58.2702 106.657 59.534 107.468 61.6404C107.988 63 108.181 66.4468 107.834 68.2277C107.14 71.7702 104.883 73.934 101.333 74.4702C100.465 74.6042 96.2212 74.6808 89.9903 74.6808H80.0557L80.0943 78.166L80.1521 81.6702L88.7557 81.7277L97.3786 81.766L103.127 88.0851L108.895 94.3851H114.663L120.45 94.4043L113.506 87.4915L106.58 80.5596L107.583 80.1383C110.824 78.7021 113.66 75.6574 114.914 72.2489C115.743 69.9894 115.994 68.4383 115.994 65.4894C116.013 60.1085 114.644 56.3362 111.499 53.234C109.628 51.3766 107.853 50.3425 105.037 49.4617L103.301 48.9255L84.8397 48.8681L66.3594 48.8106V71.617Z" fill="white" fill-opacity="0.85"/>
<path d="M130.983 71.617V94.4043H151.527H172.072V90.383V86.3617H155.482H138.892V71.617V56.8723L155.443 56.834L171.975 56.7766L172.033 52.7936L172.072 48.8298H151.527H130.983V71.617Z" fill="white" fill-opacity="0.85"/>
<path d="M185.382 71.617V94.4043H189.337H193.291V75.6383V56.8532L206.853 56.9106L220.395 56.9681L221.514 57.4085C223.713 58.3085 225.352 59.9936 226.066 62.1766C226.568 63.6702 226.625 66.8106 226.182 68.2851C225.507 70.5255 223.751 72.4213 221.456 73.3787C220.395 73.8191 220.317 73.8191 209.785 73.9149L199.175 74.0106L199.117 77.8979L199.079 81.7851L210.016 81.7277C220.742 81.6511 221.012 81.6511 222.613 81.2106C226.047 80.2915 228.902 78.5489 230.831 76.2511C234.998 71.234 235.711 62.5979 232.49 56.3936C231.988 55.4553 231.275 54.5362 230.04 53.3106C228.555 51.817 228.014 51.434 226.471 50.6872C225.468 50.1894 223.944 49.5957 223.095 49.366L221.552 48.9255L203.477 48.8681L185.382 48.8106V71.617Z" fill="white" fill-opacity="0.85"/>
<path d="M308.842 71.617V94.4043H312.796H316.751V75.6383V56.8532L330.698 56.9106L344.626 56.9681L345.706 57.4085C347.867 58.2702 349.14 59.534 349.95 61.6404C350.471 63 350.664 66.4468 350.316 68.2277C349.622 71.7702 347.365 73.934 343.816 74.4702C342.947 74.6042 338.704 74.6808 332.473 74.6808H322.538L322.577 78.166L322.635 81.6702L331.238 81.7277L339.861 81.766L345.61 88.0851L351.377 94.3851H357.145L362.932 94.4043L355.988 87.4915L349.063 80.5596L350.066 80.1383C353.307 78.7021 356.142 75.6574 357.396 72.2489C358.226 69.9894 358.476 68.4383 358.476 65.4894C358.496 60.1085 357.126 56.3362 353.982 53.234C352.11 51.3766 350.336 50.3425 347.519 49.4617L345.783 48.9255L327.322 48.8681L308.842 48.8106V71.617Z" fill="white" fill-opacity="0.85"/>
<path d="M372.501 52.7553V56.6617L388.377 56.7383C405.372 56.7957 405.217 56.7957 407.127 57.7723C408.921 58.7106 409.538 59.8979 409.538 62.483C409.538 64.0149 409.461 64.3979 409.056 65.2404C408.555 66.2362 407.764 66.8872 406.452 67.4234C405.912 67.634 403.558 67.7106 394.492 67.7872L383.207 67.883V71.234V74.5851L394.685 74.6808L406.163 74.7766L407.474 75.4085C409.558 76.4234 410.291 77.7064 410.291 80.3298C410.31 82.8574 409.384 84.2936 407.089 85.3468C404.909 86.3425 404.658 86.3617 387.894 86.3617H372.308V90.383V94.4043H389.052C399.912 94.4043 406.201 94.3277 406.954 94.1936C410.252 93.6191 412.721 92.3936 414.843 90.2872C417.351 87.817 418.354 85.366 418.547 81.2872C418.663 78.6447 418.412 77.3043 417.409 75.2745C416.599 73.6277 414.824 71.866 413.069 71.0043L411.718 70.334L412.721 69.8362C413.281 69.5681 414.245 68.8787 414.882 68.3043C416.946 66.3894 417.698 64.3404 417.718 60.7021C417.718 59.1894 417.602 58.117 417.37 57.2553C416.387 53.7128 413.898 51.166 410.079 49.8447C407.204 48.8489 407.011 48.8489 389.148 48.8298H372.501V52.7553Z" fill="white" fill-opacity="0.85"/>
<path d="M432.108 71.617V94.4043H446.557C458.671 94.4043 461.276 94.366 462.703 94.117C470.979 92.6808 477.576 86.783 480.026 78.6638C480.913 75.7149 481.01 74.9298 481.01 71.0425C480.991 67.634 480.952 67.1362 480.489 65.2787C478.271 56.5277 471.924 50.6489 463.031 49.117C461.662 48.8872 458.845 48.8298 446.75 48.8298H432.108V71.617ZM463.263 57.4851C465.5 58.2511 467.101 59.2468 468.895 61.0085C470.188 62.2915 470.612 62.8851 471.345 64.3596C472.657 67.0596 472.889 68.1702 472.889 71.4255C472.889 74.7383 472.599 76.0979 471.365 78.6064C469.667 82.0723 466.754 84.5425 462.877 85.8064C461.546 86.2468 461.411 86.266 450.782 86.3234L440.018 86.3808V71.617V56.8532L450.878 56.9106L461.719 56.9681L463.263 57.4851Z" fill="white" fill-opacity="0.85"/>
<path d="M144.757 68.0362C144.718 68.1702 144.699 69.7021 144.718 71.4255L144.776 74.5851H157.508H170.239V71.234V67.883L157.546 67.8255C147.303 67.7872 144.834 67.8255 144.757 68.0362Z" fill="white" fill-opacity="0.85"/>
</svg>