<svg xmlns="http://www.w3.org/2000/svg" xmlns:xlink="http://www.w3.org/1999/xlink" viewBox="0 0 325.6 125.03" preserveAspectRatio="xMinYMin meet" ><defs><linearGradient id="prefix__New_Gradient_Swatch_1" x1="80.97" y1="83.96" x2="80.97" y2="21.61" gradientUnits="userSpaceOnUse"><stop offset="0.15" stop-color="#29b473"></stop><stop offset="0.31" stop-color="#27a095"></stop><stop offset="0.48" stop-color="#2590af"></stop><stop offset="0.62" stop-color="#2486bf"></stop><stop offset="0.74" stop-color="#2483c5"></stop></linearGradient><linearGradient id="prefix__New_Gradient_Swatch_1-2" x1="131.94" y1="83.96" x2="131.94" y2="22.32" xlink:href="#prefix__New_Gradient_Swatch_1"></linearGradient><linearGradient id="prefix__New_Gradient_Swatch_1-3" x1="282.16" y1="85.9" x2="282.16" y2="23.55" xlink:href="#prefix__New_Gradient_Swatch_1"></linearGradient><linearGradient id="prefix__New_Gradient_Swatch_1-4" x1="29.68" y1="83.96" x2="29.68" y2="22.32" xlink:href="#prefix__New_Gradient_Swatch_1"></linearGradient><linearGradient id="prefix__New_Gradient_Swatch_1-5" x1="229.15" y1="85.19" x2="229.15" y2="23.55" xlink:href="#prefix__New_Gradient_Swatch_1"></linearGradient><linearGradient id="prefix__New_Gradient_Swatch_1-6" x1="186.95" y1="85.9" x2="186.95" y2="22.85" xlink:href="#prefix__New_Gradient_Swatch_1"></linearGradient><style>.prefix__cls-2{fill:#03ff92}.prefix__cls-4{fill:#07e899}.prefix__cls-6{fill:#0bd1a0}.prefix__cls-7{fill:#0dc6a4}.prefix__cls-10{fill:#14a3ae}.prefix__cls-11{fill:#1698b2}.prefix__cls-12{fill:#188cb5}.prefix__cls-13{fill:#1a81b9}.prefix__cls-27{fill:#fff}</style></defs><g ><g id="prefix__Layer_2" ><g id="prefix__Layer_1-2" ><path  d="M24.2 92.42a1.66 1.66 0 112.33-.75 1.73 1.73 0 01-2.33.75z"></path><path d="M35.19 93.33a1.88 1.88 0 011.17 2.36 1.93 1.93 0 01-3.61-1.37 1.88 1.88 0 012.44-.99z" fill="#05f396"></path><path  d="M45 96.43a2 2 0 011.45 2.44 2.08 2.08 0 01-4-1.16A2 2 0 0145 96.43z"></path><path d="M54.87 98.73a2.19 2.19 0 011.76 2.49 2.23 2.23 0 01-4.36-.89 2.18 2.18 0 012.6-1.6z" fill="#09dc9d"></path><path  d="M64.89 100.24a2.34 2.34 0 012.11 2.51 2.38 2.38 0 11-2.08-2.51z"></path><path  d="M75 101a2.48 2.48 0 012.42 2.49 2.53 2.53 0 01-5-.23A2.48 2.48 0 0175 101z"></path><path d="M85 100.87a2.64 2.64 0 012.77 2.43 2.69 2.69 0 01-5.37.17 2.64 2.64 0 012.6-2.6z" fill="#10baa7"></path><path d="M95.07 100a2.79 2.79 0 013.12 2.33 2.85 2.85 0 01-5.66.63 2.8 2.8 0 012.54-2.96z" fill="#12aeab"></path><path  d="M105 98.34a2.94 2.94 0 013.48 2.19 3 3 0 01-5.91 1.14 3 3 0 012.43-3.33z"></path><path  d="M114.81 95.89a3.12 3.12 0 013.85 2 3.18 3.18 0 01-6.13 1.69 3.13 3.13 0 012.28-3.69z"></path><path  d="M124.43 92.67a3.28 3.28 0 014.21 1.77 3.36 3.36 0 01-6.31 2.29 3.29 3.29 0 012.1-4.06z"></path><path  d="M133.81 88.67a3.47 3.47 0 014.58 1.48 3.55 3.55 0 01-6.45 2.94 3.46 3.46 0 011.87-4.42z"></path><path d="M169.85 14a4 4 0 015.46 1.85 4.22 4.22 0 01-7.64 3.5 4 4 0 012.18-5.35z" fill="#1c75bc"></path><path  d="M183.74 16.51a3.91 3.91 0 01-5-2.07 4 4 0 017.48-2.78 3.91 3.91 0 01-2.48 4.85z"></path><path  d="M194.62 12.73A3.72 3.72 0 01190 10.4a3.79 3.79 0 017.28-2.11 3.72 3.72 0 01-2.66 4.44z"></path><path  d="M205.71 9.76a3.53 3.53 0 01-4.22-2.53 3.6 3.6 0 017-1.5 3.52 3.52 0 01-2.78 4.03z"></path><path  d="M217 7.62a3.35 3.35 0 01-3.81-2.7 3.41 3.41 0 016.7-.92A3.35 3.35 0 01217 7.62z"></path><path d="M228.31 6.29a3.17 3.17 0 01-3.42-2.81 3.23 3.23 0 016.44-.42 3.16 3.16 0 01-3.02 3.23z" fill="#12afab"></path><path d="M239.73 5.79a3 3 0 01-3-2.89 3 3 0 016.09 0 3 3 0 01-3.09 2.89z" fill="#0fbaa7"></path><path  d="M251.17 6.11a2.83 2.83 0 01-2.65-2.92 2.87 2.87 0 015.72.45 2.82 2.82 0 01-3.07 2.47z"></path><path  d="M262.59 7.25a2.65 2.65 0 01-2.29-2.91 2.7 2.7 0 015.33.81 2.64 2.64 0 01-3.04 2.1z"></path><path d="M273.93 9.23A2.48 2.48 0 01272 6.36a2.53 2.53 0 014.93 1.12 2.49 2.49 0 01-3 1.75z" fill="#09dd9d"></path><path  d="M285.15 12a2.3 2.3 0 01-1.61-2.79 2.36 2.36 0 014.51 1.37 2.3 2.3 0 01-2.9 1.42z"></path><path d="M296.21 15.68a2.05 2.05 0 111.48-3.82 2.11 2.11 0 011.3 2.72 2.13 2.13 0 01-2.78 1.1z" fill="#05f496"></path><path  d="M307.06 20.17a2 2 0 01-1-2.56 2 2 0 013.67 1.74 2 2 0 01-2.67.82z"></path><path  d="M28 123.73a.85.85 0 01-.12.71 1.14 1.14 0 01-.76.51 1.27 1.27 0 01-.89-.08.89.89 0 01-.49-.54L25 122h-4.37l-.74 2.34a1 1 0 01-.51.54 1.22 1.22 0 01-.87.08 1.21 1.21 0 01-.77-.51.85.85 0 01-.13-.71l3.92-11.08a1.15 1.15 0 01.45-.59 1.55 1.55 0 011.69 0 1.07 1.07 0 01.46.59zm-6.72-3.68h3.12l-1.54-5zM35.51 124.19a1.07 1.07 0 01-.46.59 1.55 1.55 0 01-1.69 0 1.15 1.15 0 01-.45-.59L29 113.09a.89.89 0 01.13-.71 1.21 1.21 0 01.77-.51 1.22 1.22 0 01.87.08 1 1 0 01.51.54l2.94 9.16 2.88-9.14a.89.89 0 01.49-.54 1.27 1.27 0 01.89-.08 1.14 1.14 0 01.76.51.85.85 0 01.12.71zM41.91 112.77a.87.87 0 01.32-.65 1.3 1.3 0 01.88-.29 1.17 1.17 0 01.82.29.84.84 0 01.32.65v11.3a.84.84 0 01-.32.65 1.17 1.17 0 01-.82.29 1.3 1.3 0 01-.88-.29.87.87 0 01-.32-.65zM57.27 123.73a.85.85 0 01-.12.71 1.16 1.16 0 01-.76.51 1.27 1.27 0 01-.89-.08.89.89 0 01-.49-.54l-.72-2.33h-4.36l-.74 2.34a1 1 0 01-.51.54 1.22 1.22 0 01-.87.08 1.21 1.21 0 01-.77-.51.85.85 0 01-.13-.71l3.92-11.08a1.15 1.15 0 01.45-.59 1.55 1.55 0 011.69 0 1.07 1.07 0 01.46.59zm-6.72-3.68h3.12l-1.54-5zM66.09 112a1.18 1.18 0 01.87.29 1 1 0 01.29.79 1 1 0 01-.29.75 1.18 1.18 0 01-.87.29h-2.62v9.94a.86.86 0 01-.31.65 1.16 1.16 0 01-.83.29 1.3 1.3 0 01-.88-.29.87.87 0 01-.32-.65v-9.94h-2.36a1.2 1.2 0 01-.83-.29 1 1 0 01-.31-.75 1.05 1.05 0 01.31-.79 1.2 1.2 0 01.83-.29zM77.16 112.32a1 1 0 01.29.79 1 1 0 01-.29.75 1.15 1.15 0 01-.85.29h-4.48v3.14h3a1.18 1.18 0 01.87.29 1 1 0 01.29.79 1 1 0 01-.29.75 1.18 1.18 0 01-.87.29h-3v3.3h4.48a1.15 1.15 0 01.85.29 1 1 0 01.29.79 1 1 0 01-.29.75 1.15 1.15 0 01-.85.29h-5.62a1.29 1.29 0 01-.87-.29.85.85 0 01-.33-.65V113a.85.85 0 01.33-.65 1.29 1.29 0 01.87-.29h5.62a1.15 1.15 0 01.85.26zM99.06 112.32a1.08 1.08 0 01.29.79 1 1 0 01-.29.75 1.17 1.17 0 01-.85.29h-4.48v3.14h3a1.18 1.18 0 01.87.29 1.08 1.08 0 01.29.79 1 1 0 01-.29.75 1.18 1.18 0 01-.87.29h-3v3.3h4.48a1.17 1.17 0 01.85.29 1.08 1.08 0 01.29.79 1 1 0 01-.29.75 1.17 1.17 0 01-.85.29h-5.62a1.29 1.29 0 01-.87-.29.85.85 0 01-.33-.65V113a.85.85 0 01.33-.65 1.29 1.29 0 01.87-.29h5.62a1.17 1.17 0 01.85.26zM102.21 113a.87.87 0 01.32-.65 1.28 1.28 0 01.88-.29H106a5.88 5.88 0 012.36.43 4.55 4.55 0 011.65 1.16 4.75 4.75 0 011 1.72 6.9 6.9 0 01.31 2.11v2.22a6.33 6.33 0 01-.31 2 4.5 4.5 0 01-1 1.64 4.43 4.43 0 01-1.65 1.1 6.27 6.27 0 01-2.36.4h-2.58a1.28 1.28 0 01-.88-.29.87.87 0 01-.32-.65zm2.34 1.18v8.56H106a3.06 3.06 0 002.16-.72 2.72 2.72 0 00.78-2.1v-2.64a3.19 3.19 0 00-.78-2.28 2.83 2.83 0 00-2.16-.82zM119.41 125a6.11 6.11 0 01-2.26-.38 4.15 4.15 0 01-1.54-1 4 4 0 01-.88-1.5 5.65 5.65 0 01-.28-1.8v-7.56a.85.85 0 01.33-.65 1.29 1.29 0 01.87-.29 1.18 1.18 0 01.83.29.86.86 0 01.31.65v7.54c0 1.69.87 2.54 2.62 2.54a2.27 2.27 0 002.6-2.54v-7.54a.85.85 0 01.33-.65 1.23 1.23 0 01.83-.29 1.29 1.29 0 01.87.29.85.85 0 01.33.65v7.56a5.65 5.65 0 01-.28 1.8 4 4 0 01-.88 1.5 4.15 4.15 0 01-1.54 1 6.11 6.11 0 01-2.26.38zM127.67 116.69a5.81 5.81 0 01.3-1.87 4.25 4.25 0 012.38-2.6 5 5 0 012-.39 5.46 5.46 0 011.44.18 4.47 4.47 0 011.15.48 2.54 2.54 0 01.76.68 1.35 1.35 0 01.27.8.79.79 0 01-.8.84 1.8 1.8 0 01-.6-.09 2.88 2.88 0 01-.6-.31 3.69 3.69 0 00-.69-.34 2.8 2.8 0 00-1-.14 2.33 2.33 0 00-1.65.64 2.59 2.59 0 00-.69 2v3.78a2.55 2.55 0 00.69 2 2.36 2.36 0 001.65.63 3.83 3.83 0 00.93-.09 2.77 2.77 0 00.67-.27l.38-.23a1.88 1.88 0 01.29-.14 1.34 1.34 0 01.27-.07h.32a.73.73 0 01.59.23.84.84 0 01.19.57 1.35 1.35 0 01-.27.8 2.39 2.39 0 01-.76.67 4.84 4.84 0 01-1.15.47 5.46 5.46 0 01-1.44.18 5 5 0 01-2-.39 4.27 4.27 0 01-2.38-2.59 5.79 5.79 0 01-.3-1.88zM148.27 123.73a.85.85 0 01-.12.71 1.16 1.16 0 01-.76.51 1.27 1.27 0 01-.89-.08.89.89 0 01-.49-.54l-.72-2.32h-4.36l-.74 2.34a1 1 0 01-.51.54 1.22 1.22 0 01-.87.08 1.18 1.18 0 01-.77-.51.85.85 0 01-.13-.71l3.92-11.08a1.15 1.15 0 01.45-.59 1.55 1.55 0 011.69 0 1.12 1.12 0 01.46.59zm-6.72-3.68h3.12l-1.54-5zM157.09 112a1.18 1.18 0 01.87.29 1.08 1.08 0 01.29.79 1 1 0 01-.29.75 1.18 1.18 0 01-.87.29h-2.62v9.94a.86.86 0 01-.31.65 1.18 1.18 0 01-.83.29 1.28 1.28 0 01-.88-.29.87.87 0 01-.32-.65v-9.94h-2.36a1.18 1.18 0 01-.83-.29 1 1 0 01-.31-.75 1 1 0 01.31-.79 1.18 1.18 0 01.83-.29zM168.16 112.32a1.08 1.08 0 01.29.79 1 1 0 01-.29.75 1.17 1.17 0 01-.85.29h-4.48v3.14h3a1.18 1.18 0 01.87.29 1.08 1.08 0 01.29.79 1 1 0 01-.29.75 1.18 1.18 0 01-.87.29h-3v3.3h4.48a1.17 1.17 0 01.85.29 1.08 1.08 0 01.29.79 1 1 0 01-.29.75 1.17 1.17 0 01-.85.29h-5.62a1.29 1.29 0 01-.87-.29.85.85 0 01-.33-.65V113a.85.85 0 01.33-.65 1.29 1.29 0 01.87-.29h5.62a1.17 1.17 0 01.85.26zM182.15 116.69a5.81 5.81 0 01.3-1.87 4.25 4.25 0 012.38-2.6 5 5 0 012-.39 5.46 5.46 0 011.44.18 4.47 4.47 0 011.15.48 2.54 2.54 0 01.76.68 1.35 1.35 0 01.27.8.79.79 0 01-.8.84 1.8 1.8 0 01-.6-.09 2.88 2.88 0 01-.6-.31 3.69 3.69 0 00-.69-.34 2.8 2.8 0 00-.95-.14 2.33 2.33 0 00-1.65.64 2.59 2.59 0 00-.69 2v3.78a2.55 2.55 0 00.69 2 2.36 2.36 0 001.65.63 3.83 3.83 0 00.93-.09 2.77 2.77 0 00.67-.27l.38-.23a1.88 1.88 0 01.29-.14 1.34 1.34 0 01.27-.07h.32a.73.73 0 01.59.23.84.84 0 01.19.57 1.35 1.35 0 01-.27.8 2.39 2.39 0 01-.76.67 4.84 4.84 0 01-1.15.47 5.46 5.46 0 01-1.44.18 5 5 0 01-2-.39 4.27 4.27 0 01-2.38-2.59 5.79 5.79 0 01-.3-1.88zM192.69 117a6.77 6.77 0 01.3-2 4.6 4.6 0 01.92-1.65 4.28 4.28 0 011.57-1.1 5.69 5.69 0 012.25-.4 5.76 5.76 0 012.27.4 4.4 4.4 0 011.58 1.1 4.48 4.48 0 01.93 1.65 6.77 6.77 0 01.3 2v2.8a6.77 6.77 0 01-.3 2 4.48 4.48 0 01-.93 1.65 4.4 4.4 0 01-1.58 1.1 5.76 5.76 0 01-2.27.4 5.69 5.69 0 01-2.25-.4 4.28 4.28 0 01-1.57-1.1 4.6 4.6 0 01-.92-1.65 6.77 6.77 0 01-.3-2zm2.3 2.82a3.1 3.1 0 00.74 2.33 3.27 3.27 0 004 0 3.14 3.14 0 00.72-2.33V117a3.14 3.14 0 00-.72-2.33 3.27 3.27 0 00-4 0A3.1 3.1 0 00195 117zM211.89 121.21a1.19 1.19 0 01-.8-.27 2.38 2.38 0 01-.5-.57l-2.22-4.66v8.38a.86.86 0 01-.31.65 1.18 1.18 0 01-.83.29 1.29 1.29 0 01-.87-.29.85.85 0 01-.33-.65v-11.32a.85.85 0 01.33-.65 1.29 1.29 0 01.87-.29h.34a1.71 1.71 0 01.86.19 1.34 1.34 0 01.52.51l2.94 5.92 2.94-5.92a1.61 1.61 0 01.54-.53 1.53 1.53 0 01.86-.19h.32a1.28 1.28 0 01.88.29.87.87 0 01.32.65v11.32a.87.87 0 01-.32.65 1.28 1.28 0 01-.88.29 1.16 1.16 0 01-.81-.29.86.86 0 01-.31-.65v-8.38l-2.24 4.66a2.08 2.08 0 01-.48.57 1.23 1.23 0 01-.82.29zM227 121.21a1.19 1.19 0 01-.8-.27 2.38 2.38 0 01-.5-.57l-2.22-4.66v8.38a.86.86 0 01-.31.65 1.18 1.18 0 01-.83.29 1.29 1.29 0 01-.87-.29.85.85 0 01-.33-.65v-11.32a.85.85 0 01.33-.65 1.29 1.29 0 01.87-.29h.34a1.71 1.71 0 01.86.19 1.34 1.34 0 01.52.51l2.94 5.92 2.94-5.92a1.61 1.61 0 01.54-.53 1.53 1.53 0 01.86-.19h.32a1.28 1.28 0 01.88.29.87.87 0 01.32.65v11.32a.87.87 0 01-.32.65 1.28 1.28 0 01-.88.29 1.16 1.16 0 01-.81-.29.86.86 0 01-.31-.65v-8.38l-2.24 4.66a2.08 2.08 0 01-.48.57 1.23 1.23 0 01-.82.29zM241.23 125a6.11 6.11 0 01-2.26-.38 4.15 4.15 0 01-1.54-1 4 4 0 01-.88-1.5 5.65 5.65 0 01-.28-1.8v-7.56a.85.85 0 01.33-.65 1.29 1.29 0 01.87-.29 1.18 1.18 0 01.83.29.86.86 0 01.31.65v7.54c0 1.69.87 2.54 2.62 2.54a2.27 2.27 0 002.6-2.54v-7.54a.85.85 0 01.33-.65 1.23 1.23 0 01.83-.29 1.29 1.29 0 01.87.29.85.85 0 01.33.65v7.56a5.65 5.65 0 01-.28 1.8 4 4 0 01-.88 1.5 4.15 4.15 0 01-1.54 1 6.11 6.11 0 01-2.26.38zM249.73 112.77a.85.85 0 01.33-.65 1.29 1.29 0 01.87-.29 1.21 1.21 0 01.74.23 1 1 0 01.38.53l5.38 7.86v-7.68a.87.87 0 01.32-.65 1.28 1.28 0 01.88-.29 1.16 1.16 0 01.81.29.86.86 0 01.31.65v11.32a.86.86 0 01-.31.65 1.16 1.16 0 01-.81.29 1.46 1.46 0 01-.73-.17.94.94 0 01-.41-.45l-.06-.1-5.36-7.78v7.56a.86.86 0 01-.31.65 1.18 1.18 0 01-.83.29 1.29 1.29 0 01-.87-.29.85.85 0 01-.33-.65zM263.17 112.77a.87.87 0 01.32-.65 1.28 1.28 0 01.88-.29 1.19 1.19 0 01.82.29.87.87 0 01.32.65v11.3a.87.87 0 01-.32.65 1.19 1.19 0 01-.82.29 1.28 1.28 0 01-.88-.29.87.87 0 01-.32-.65zM268.69 116.69a5.81 5.81 0 01.3-1.87 4.25 4.25 0 012.38-2.6 5 5 0 012-.39 5.46 5.46 0 011.44.18 4.47 4.47 0 011.15.48 2.54 2.54 0 01.76.68 1.35 1.35 0 01.27.8.79.79 0 01-.8.84 1.8 1.8 0 01-.6-.09 2.88 2.88 0 01-.6-.31 4 4 0 00-.69-.34 2.84 2.84 0 00-.95-.14 2.33 2.33 0 00-1.65.64 2.59 2.59 0 00-.69 2v3.78a2.55 2.55 0 00.69 2 2.36 2.36 0 001.65.63 3.89 3.89 0 00.93-.09 2.94 2.94 0 00.67-.27l.38-.23a1.88 1.88 0 01.29-.14 1.34 1.34 0 01.27-.07h.32a.73.73 0 01.59.23.84.84 0 01.19.57 1.35 1.35 0 01-.27.8 2.39 2.39 0 01-.76.67 4.84 4.84 0 01-1.15.47 5.46 5.46 0 01-1.44.18 5 5 0 01-2-.39 4.27 4.27 0 01-2.38-2.59 5.79 5.79 0 01-.3-1.88zM289.29 123.73a.85.85 0 01-.12.71 1.16 1.16 0 01-.76.51 1.27 1.27 0 01-.89-.08.86.86 0 01-.49-.54l-.72-2.32H282l-.74 2.34a1 1 0 01-.51.54 1.22 1.22 0 01-.87.08 1.18 1.18 0 01-.77-.51.85.85 0 01-.13-.71l3.92-11.08a1.15 1.15 0 01.45-.59 1.55 1.55 0 011.69 0 1.12 1.12 0 01.46.59zm-6.72-3.68h3.12l-1.54-5zM298.11 112a1.22 1.22 0 01.87.29 1.08 1.08 0 01.29.79 1 1 0 01-.29.75 1.22 1.22 0 01-.87.29h-2.62v9.94a.89.89 0 01-.31.65 1.2 1.2 0 01-.83.29 1.26 1.26 0 01-.88-.29.84.84 0 01-.32-.65v-9.94h-2.36a1.18 1.18 0 01-.83-.29 1 1 0 01-.31-.75 1 1 0 01.31-.79 1.18 1.18 0 01.83-.29zM309.18 112.32a1.08 1.08 0 01.29.79 1 1 0 01-.29.75 1.17 1.17 0 01-.85.29h-4.48v3.14h3a1.18 1.18 0 01.87.29 1.08 1.08 0 01.29.79 1 1 0 01-.29.75 1.18 1.18 0 01-.87.29h-3v3.3h4.48a1.17 1.17 0 01.85.29 1.08 1.08 0 01.29.79 1 1 0 01-.29.75 1.17 1.17 0 01-.85.29h-5.62a1.29 1.29 0 01-.87-.29.85.85 0 01-.33-.65V113a.85.85 0 01.33-.65 1.29 1.29 0 01.87-.29h5.62a1.17 1.17 0 01.85.26z"></path><path d="M84.68 22.41a1.24 1.24 0 00-1.23-.8h-5.11a1.21 1.21 0 00-1.14.8l-25.8 59.7A1.31 1.31 0 0052.54 84h10.83a1.17 1.17 0 001.15-.79L67.6 76h26.68l3.08 7.13a1.14 1.14 0 001.15.88h10.83a1.3 1.3 0 001.23-1.76zm9.56 35.37l-.78-.38-8.16-3.9a2.31 2.31 0 00-1.63-.2 1.56 1.56 0 00-1.13 1 7.31 7.31 0 00-.5 2.16c-.05.66 0 1.32-.05 2l-.06 2.92a.24.24 0 00.09.21c.43.35.85.7 1.29 1l1.6 1.22c.15.11.29.23.45.33a.36.36 0 01.16.24c.08.52.17 1 .25 1.56v.22l-4.4-1.26c-.14.36-.27.71-.4 1.07l-.39-1.07-4.43 1.25a1.17 1.17 0 010-.22c.08-.52.17-1 .25-1.56a.33.33 0 01.16-.24c.15-.1.3-.22.45-.33l1.6-1.22 1.29-1a.24.24 0 00.08-.21l.02-2.96v-2a7.32 7.32 0 00-.51-2.16 1.57 1.57 0 00-1.12-1 2.31 2.31 0 00-1.63.2l-8.16 3.9-.79.38c0-.38 0-.73-.07-1.09a1.43 1.43 0 01.64-1.37c.39-.31 9.35-7.1 9.35-7.1l1.72-1.3a.29.29 0 00.13-.26c0-1.08 0-2.16.07-3.24a15.7 15.7 0 01.2-2.38 3.09 3.09 0 01.36-1.15.94.94 0 01.87-.47 1 1 0 01.88.47 3.29 3.29 0 01.27 1.16 18.79 18.79 0 01.2 2.38c0 1.08 0 2.16.07 3.24a.27.27 0 00.13.26l1.71 1.3 9.36 7.1a1.47 1.47 0 01.64 1.37c-.04.4-.05.75-.08 1.13z" fill="url(#prefix__New_Gradient_Swatch_1)"></path><path d="M154.88 22.32h-45.79a1.43 1.43 0 00-1.32 1.41V33a1.35 1.35 0 001.32 1.32h16.11v48.32a1.28 1.28 0 001.24 1.36h11a1.36 1.36 0 001.32-1.32V34.29h16.11a1.27 1.27 0 001.24-1.29v-9.27a1.35 1.35 0 00-1.23-1.41z" fill="url(#prefix__New_Gradient_Swatch_1-2)"></path><path d="M312.54 23.55H301.8a2.53 2.53 0 00-1.94 1.32L282.25 62l-17.7-37.16a2.49 2.49 0 00-1.94-1.32h-10.83a1.28 1.28 0 00-1.23 1.32V84a1.2 1.2 0 001.23 1.23h11a1.28 1.28 0 001.33-1.23V54.2l15.59 30.38a2.5 2.5 0 001.85 1.32h1.32a2.64 2.64 0 001.93-1.32l15.42-30.21V84a1.27 1.27 0 001.32 1.23h11a1.2 1.2 0 001.24-1.23V24.87a1.28 1.28 0 00-1.24-1.32z" fill="url(#prefix__New_Gradient_Swatch_1-3)"></path><path d="M58.1 22.32H47.44a2.35 2.35 0 00-1.85 1.32L29.74 60.89l-16-37.25a2.21 2.21 0 00-1.85-1.32H1.3a1.26 1.26 0 00-1.15 1.85L25.87 83c.26.71.52 1 1.23 1h5.19a1.4 1.4 0 001.24-.88l25.71-58.95a1.31 1.31 0 00-1.14-1.85z" fill="url(#prefix__New_Gradient_Swatch_1-4)"></path><path d="M234.7 23.55h-11a1.36 1.36 0 00-1.32 1.32v59a1.35 1.35 0 001.32 1.32h11a1.28 1.28 0 001.23-1.32v-59a1.28 1.28 0 00-1.23-1.32z" fill="url(#prefix__New_Gradient_Swatch_1-5)"></path><path d="M188.31 48c-8.36-1.68-11.8-3.53-11.8-7.14 0-3.43 4.05-5.37 10.39-5.37a23.21 23.21 0 0114.27 4.4 1.34 1.34 0 001.67-.17l6.87-7.22a1.31 1.31 0 00-.09-1.94c-4.57-3.61-11.36-7.66-23.24-7.66C169.29 22.85 163 34.12 163 41.78c0 8.54 5.37 15.32 22.9 18.76 8.63 1.67 11.53 3 11.53 6.51 0 4.76-6.78 6.26-10.48 6.26-8.63 0-13.21-3.35-14.88-4.67a1.45 1.45 0 00-1.76.09l-6.87 7a1.34 1.34 0 000 1.76c6.25 6.26 14.18 8.37 23.43 8.37 18 .04 24.13-11.06 24.13-18.81 0-10.48-6.75-16.2-22.69-19.05z" fill="url(#prefix__New_Gradient_Swatch_1-6)"></path><text x="317.95" y="27.39" fill="#1698b2" font-family="&#x27;Ubuntu Titling&#x27;,&#x27;UbuntuTitling-Bold&#x27;, &#x27;Ubuntu&#x27;, &#x27;Segoe UI&#x27;, Arial, sans-serif" font-weight="700" font-size="6" letter-spacing=".02em">TM</text></g></g></g></svg>